<?xml version="1.0" encoding="utf-8"?>
<!-- Generator: Adobe Illustrator 22.0.0, SVG Export Plug-In . SVG Version: 6.00 Build 0)  -->
<svg version="1.1" id="图层_1" xmlns="http://www.w3.org/2000/svg" xmlns:xlink="http://www.w3.org/1999/xlink" x="0px" y="0px"
	 viewBox="0 0 420 745" style="enable-background:new 0 0 420 745;" xml:space="preserve">
<style type="text/css">
	.st0{fill:#C0C1B8;}
	.st1{display:none;}
	.st2{clip-path:url(#SVGID_2_);}
	.st3{fill:#17F700;}
	.st4{fill:none;stroke:#000000;stroke-width:3;stroke-linecap:round;stroke-linejoin:round;stroke-miterlimit:10;}
</style>
<path id="head_1_" class="st0" d="M360.6,440.4c-12.1,33.2-48,33.4-56,46.8c-7.9,13.4-22.3,101.4-18.1,120.8
	c3.1,13.1,15.6,38.1,20.3,70.8c4.7,32.7,1.5,47.3,1.5,47.3H84c0,0,28.5-50.3,31.5-77c1.6-22.7-3-46.1-7.3-48.9
	c-4.3-2.8-45.3,4.3-54.2-6.8C45,582.3,19.6,461.9,19,450c-0.6-17.1,9.8-44.2,6.7-57.4c-3.2-13.2-17.5-22.1-14.9-35.8s18-21.2,28-41
	c1.7-3.3,3.4-6.9,5.2-10.6c0.1-0.3,0.2-0.5,0.4-0.8C51.2,293,112.7,284,187.6,284c75.3,0,137.1,9,143.3,20.5
	c0.2,0.4,0.3,0.8,0.5,1.2c10.6,29.4,7,76.2,7,76.2s10.1-2.2,14.4,2.5C356.9,389.1,368.5,414.6,360.6,440.4z"/>
<path id="hole" d="M325.5,306.5c0,11.9-61.7,21.5-137.9,21.5s-137.9-9.6-137.9-21.5c0-0.4,0.1-0.9,0.3-1.3c0.1-0.3,0.2-0.5,0.3-0.7
	c6.5-10.9,65.5-19.5,137.3-19.5c72.2,0,131.4,8.7,137.4,19.7c0.1,0.4,0.3,0.8,0.4,1.1C325.4,306,325.5,306.3,325.5,306.5z"/>
<g id="face">
	<path d="M29.2,506.4c0,0,10.5-7.8,16.1-7.8c4.4-0.2,8.5,3.5,12.5,3s7.3-2.5,14.7-2.4s35.4,5.1,39,6.3s18.6,6.1,17.8,7.9
		c-0.7,1.9-35.1-4.6-46.8-2.2c-6.1,1.3-18.1,6.7-23.6,6.7c-4.2,0-6.4-3.3-10.8-4.2c-6.3-1.3-18.2,1.4-18.2,1.4L29.2,506.4z"/>
	<path d="M30.9,442.2c-1.5,1.9,8.5,22.5,17.8,26.4s48.9-6.3,49.8-7.5c1.6-2.3-4.6-9.1-14.7-9.7C70.9,450.7,65.7,436,55,439.1
		C44.3,441.8,32.4,440.3,30.9,442.2z"/>
	<path d="M55.3,378.2c-1,6.2-13.5,33.9-17.4,37.1c-3.8,3.2-13.5,5.2-14.9,5.7c2.2-11,4.2-21.5,2.6-28.4
		c-3.2-13.2-17.5-22.1-14.9-35.8c0.7-3.7,2.3-7,4.6-10.2C16,346.7,58.9,360.9,55.3,378.2z"/>
	<path d="M123.1,554.9c-1.1,0.8-7.5,0.1-11.2-1.6s-18.4-4.6-22.9-4.5s-32.4,0.1-37.4,0.7c-3.7,0.5-8.3,4.2-10.2,6
		c-2.9-11.4-6-24.2-8.9-36.9c2.6,4.2,10.6,16.6,13.2,16.6c3.2,0,32.1-0.5,40.7,2C95.2,539.8,124.2,554.1,123.1,554.9z"/>
	<path d="M99.4,599.5c0,0,49.8-11.6,71.6-18.6s101.5-48,104-47.5s2.6,12.6,1.3,14.4c-1.4,1.9-66.9,48-75.3,51.5
		C192.6,602.7,99.4,599.5,99.4,599.5z"/>
	<path class="st1" d="M151.3,446.9c-1,4.2,28.1,45.8,34.3,44.7c11.4-2.5,67.2-33.2,67.5-37.3s-5.6-31.6-9.3-31.3
		c-3.7,0.3-30.9,15.6-40.9,18.6S152.2,442.7,151.3,446.9z"/>
	<path d="M76.1,377.7c0,0,13.9-18.5,21.9-24.9c7.9-6.4,20.2-16.7,23.7-16.7s45.6,8.8,57,12.6c11.4,3.9,61,27.7,61,31.1
		s-27.8,17.4-32.1,18.2c-9.9,2.1-15.8-17.1-39.8-27.1c-13.1-5.9-40-13.4-42.5-8.9c-6.6,12.3,19,11.1,34.9,16.5
		c15.5,5.3,24.1,9.5,22.8,12.1c-0.7,1.4-5.6-2-22.9-7.1c-15.5-4.6-25.5-4.5-29.1,2c-7.5,14.7-28.2-1.9-35.6-5.5
		S76.1,377.7,76.1,377.7z"/>
	<path d="M128.6,401c-0.8,1.2,16,18.7,28.3,16s21.7-10.4,25.1-14.5c5.7-6.2,3.9-12.3-1.4-9.2c-4.7,3-15.5,10.9-26.4,11.5
		S129.4,399.8,128.6,401z"/>
	<path d="M303.7,416.8c1-2.9,5.6-2.2,10.8-6c5.2-3.8,18.3-18,23.6-19.8c15.2-5.2,17.8,5.4,12.2,6.8c-4.2,1.1-24.6,11.1-24.5,13.7
		s18.3,6.8,14.4,10.9c-5.2,5.2-14.8,10.5-22.7,9.6C309.5,431.1,302.7,419.7,303.7,416.8z"/>
	<path class="st1" d="M128.2,388.4c1.2-5.2,6.1-11.5,18.2-7.8c12.2,3.7,29.4,9.6,29.4,9.6S162.7,402,149,400.4
		C127.1,396.9,126.9,393.6,128.2,388.4z"/>
</g>
<path id="top" class="st0" d="M328.1,306.5c-12.4,0-22.5-64.4-22.5-143.8s10-143.8,22.5-143.8c0.5,0,0.9,0.1,1.3,0.3
	c0.3,0.1,0.5,0.2,0.8,0.4c18.7,8.9,40.7,18.6,45.8,22.5c18.1,14.1,37.1,78,35.4,140.9c-3,94.6-46.3,109.2-80.7,122.8
	c-0.2,0.1-0.4,0.2-0.6,0.2c-0.4,0.2-0.8,0.3-1.2,0.5C328.5,306.5,328.3,306.5,328.1,306.5z"/>
<g>
	<g>
		<g>
			<defs>
				<path id="SVGID_1_" d="M325.5,306.5c0,11.9-61.7,21.5-137.9,21.5s-137.9-9.6-137.9-21.5c0-0.4,0.1-0.9,0.3-1.3
					c0.1-0.3,0.2-0.5,0.3-0.7c6.5-10.9,10.5-139.7,140.3-139.7S319,293.6,325,304.7c0.1,0.4,0.3,0.8,0.4,1.1
					C325.4,306,325.5,306.3,325.5,306.5z"/>
			</defs>
			<clipPath id="SVGID_2_">
				<use xlink:href="#SVGID_1_"  style="overflow:visible;"/>
			</clipPath>
			<g id="brain_2_" class="st2">
				<g id="brain_4_">
					<path class="st3" d="M108.9,350.5c3.2,2.2,5.8,23.2,29.8,20.9c24.1-2.4,22.8-5.7,22.8-5.7s10.1,4.2,18.9,3.9
						c8.8-0.3,10.6-1.4,10.6-1.4s23.2,17.8,43.3,10.4s18.7-17.2,18.7-17.2s14,1.2,23.7-6.1s6.6-19.9,13.5-26.4
						c6.8-6.6,23.2-4,23.9-15.3s-6.3-18.5-6.3-18.5c0-1.1,7-6.2,2.9-12.1c-4.2-6-7.5-7.4-7.5-7.4s4.5-12.3-4.5-17.2
						c-9-4.9-23.2-9.1-23.2-9.1s8.3-23.9-9-29.6c-11.3-3.3-21.6-2.4-21.6-2.4s-12.4-10.1-25-10.1c-12.6-0.1-15.8,3.4-15.8,3.4
						s-12.9-1.9-19.8,0.2c-6.8,2-9.9,8.1-9.9,8.1s-14.7-2.3-21.3,2.8s-3.8,10.2-7.8,11.9c-4.1,1.6-11.7-8.1-25.3-5.6
						s-14.4,16.7-17.3,20.4c-2.8,3.8-16.9,2.5-19.3,13.6s0.1,23.4,0.1,23.4s-20.4,13.9-15.8,31.8c2.2,8.5,6.9,9.2,6.9,9.2
						S74,346.8,89,350.1C99.5,352.9,105.7,348.3,108.9,350.5z"/>
					<path d="M108.9,350.5c0.5,0.4,0.9,1,1.2,1.6c0.3,0.6,0.6,1.2,0.9,1.8c0.6,1.2,1.1,2.4,1.8,3.6c1.2,2.4,2.7,4.6,4.4,6.6
						c1.8,2,3.9,3.6,6.2,4.9c2.4,1.2,4.9,2,7.6,2.3c2.6,0.4,5.3,0.3,7.9,0.1l4-0.4l3.9-0.5c2.6-0.4,5.3-0.8,7.8-1.4
						c1.3-0.3,2.6-0.6,3.8-1.1c0.6-0.2,1.2-0.5,1.8-0.8c0.3-0.2,0.5-0.4,0.8-0.5c0.2-0.2,0.4-0.5,0.4-0.7v-0.3l0.3,0.1
						c2.3,0.9,4.7,1.7,7.1,2.3s4.9,1.1,7.4,1.4s5,0.2,7.5,0c1.3-0.1,2.5-0.2,3.7-0.4c1.2-0.2,2.5-0.4,3.6-0.8l0.1-0.1l0.1,0.1
						c4.9,3.5,10.3,6.4,16,8.6c5.6,2.1,11.7,3.5,17.7,3.3c3-0.1,6-0.6,8.8-1.6c1.4-0.5,2.8-1.1,4.2-1.7c1.4-0.7,2.7-1.3,4-2
						c2.6-1.5,5.1-3.2,7.1-5.4c1-1.1,1.8-2.3,2.5-3.6c0.3-0.6,0.6-1.3,0.7-2c0.2-0.7,0.3-1.4,0.2-2l-0.1-0.8h0.8
						c4.3,0.2,8.7-0.2,12.8-1.3c2.1-0.5,4.1-1.2,6-2.2c1.9-0.9,3.8-2,5.3-3.4s2.9-3,3.8-4.9c1-1.9,1.7-3.9,2.2-6
						c0.6-2.1,1.1-4.2,1.7-6.4c0.6-2.1,1.5-4.3,2.8-6.3c0.2-0.2,0.3-0.5,0.5-0.7l0.6-0.7l0.6-0.7c0.2-0.2,0.4-0.4,0.7-0.6
						c0.9-0.8,1.9-1.4,3-1.9c2.1-1,4.2-1.7,6.3-2.4c2.1-0.6,4.2-1.2,6.2-1.9c2-0.7,3.9-1.6,5.2-3c1.4-1.4,2-3.2,2.1-5.2
						c0.1-2.1-0.1-4.2-0.5-6.2c-0.5-2-1.1-4-2.1-5.9c-0.5-0.9-1-1.8-1.6-2.7c-0.6-0.9-1.2-1.7-1.9-2.4l-0.4-0.5v-0.5
						c0-0.2,0.1-0.4,0.1-0.6c0-0.1,0.1-0.2,0.1-0.3l0.1-0.1c0.1-0.1,0.2-0.3,0.3-0.4c0.2-0.2,0.4-0.5,0.5-0.6
						c0.3-0.4,0.6-0.8,0.9-1.2c0.6-0.8,1.1-1.5,1.5-2.3s0.6-1.6,0.7-2.4c0-0.8-0.1-1.6-0.5-2.3c-0.2-0.4-0.4-0.7-0.6-1.1
						c-0.3-0.4-0.6-0.8-0.9-1.2c-0.6-0.8-1.2-1.5-1.9-2.2c-0.7-0.7-1.3-1.4-2.1-2c-0.4-0.3-0.7-0.6-1.1-0.9
						c-0.2-0.1-0.4-0.3-0.6-0.4s-0.4-0.2-0.5-0.3l-1.1-0.5l0.4-1.2c1-3.2,1.4-6.9,0.5-10c-0.5-1.6-1.3-3-2.5-4c-0.5-0.6-1.3-1-2-1.4
						c-0.8-0.4-1.6-0.8-2.4-1.2c-3.3-1.6-6.7-2.9-10.1-4.2s-6.9-2.4-10.4-3.5l-1.4-0.4l0.5-1.4c1.3-4.3,2-8.9,1.8-13.3
						c-0.1-2.2-0.5-4.4-1.3-6.4s-2-3.8-3.5-5.2c-1.6-1.4-3.5-2.4-5.6-3c-2.2-0.6-4.4-1.1-6.7-1.5c-4.5-0.7-9.2-1-13.7-0.7h-0.6
						l-0.4-0.4c-2.7-2.1-5.9-4.1-9-5.7c-3.2-1.6-6.5-2.9-9.9-3.6c-0.9-0.2-1.7-0.3-2.6-0.4c-0.9-0.1-1.7-0.1-2.6-0.2
						c-1.8,0-3.6,0-5.3,0.2c-1.8,0.2-3.5,0.4-5.2,0.9c-0.8,0.2-1.6,0.5-2.4,0.8c-0.4,0.2-0.8,0.3-1.1,0.5c-0.2,0.1-0.3,0.2-0.5,0.3
						c-0.1,0.1-0.1,0.1-0.2,0.1c-0.1,0-0.1,0.1-0.1,0.1l-1.1,0.4c-2.7-0.4-5.4-0.6-8.1-0.7c-2.7-0.1-5.4-0.1-8,0.2s-5,1.1-7.2,2.5
						c-2.1,1.4-4,3.4-5.2,5.5l-0.4,0.7l-0.8-0.1c-2.8-0.4-5.7-0.6-8.5-0.5s-5.7,0.3-8.3,1.2c-1.3,0.4-2.5,1-3.6,1.8
						s-2.1,1.8-2.9,2.9c-0.8,1.1-1.3,2.3-1.7,3.7c-0.2,0.7-0.4,1.4-0.7,2.1c-0.3,0.7-0.6,1.6-1.3,2.2c-0.1,0.2-0.3,0.3-0.5,0.4
						s-0.4,0.3-0.6,0.4l-0.6,0.3c-0.2,0.1-0.5,0.2-0.7,0.2c-1,0.1-1.8-0.1-2.6-0.3c-1.5-0.5-2.8-1.2-4.1-1.9
						c-2.6-1.3-5.2-2.5-7.9-3.3c-2.7-0.7-5.6-1-8.4-0.7c-0.7,0.1-1.4,0.2-2.1,0.3l-2,0.5c-0.7,0.2-1.3,0.5-1.9,0.8s-1.2,0.7-1.8,1
						c-2.4,1.5-4.3,3.6-5.7,6.1c-1.4,2.4-2.4,5.1-3.4,7.9c-0.6,1.4-1,2.8-2,4.1c-0.6,0.6-1.3,1-2,1.3s-1.4,0.6-2.1,0.8
						c-2.8,0.9-5.6,1.6-8.2,2.8s-4.8,3.1-6,5.7c-0.6,1.3-0.9,2.7-1.2,4.1c-0.3,1.4-0.4,2.9-0.6,4.3c-0.3,2.9-0.3,5.8-0.1,8.7
						c0.2,2.9,0.5,5.8,1,8.6v0.2l-0.1,0.1c-3.3,2.4-6.4,5.2-9,8.4c-2.6,3.2-4.8,6.7-6.2,10.6c-1.3,3.9-1.7,8.1-0.7,12.1
						c0.5,2,1.2,4,2.3,5.7c1.1,1.7,2.6,3.3,4.6,3.8h0.1v0.1c0,4.2,0.6,8.4,2.1,12.3c0.7,2,1.7,3.8,2.9,5.5c1.3,1.6,2.8,3.1,4.6,4.1
						c0.4,0.3,0.9,0.5,1.4,0.7s1,0.4,1.4,0.6c1,0.3,2,0.6,3,0.8c2,0.4,4.1,0.6,6.2,0.6s4.2-0.3,6.2-0.7c1-0.2,2.1-0.4,3.1-0.4
						C106.9,349.8,108,349.9,108.9,350.5z M108.9,350.5c-0.9-0.6-2-0.6-3-0.6c-1,0.1-2.1,0.3-3.1,0.5c-2.1,0.4-4.1,0.7-6.2,0.7
						s-4.2-0.2-6.2-0.6c-1-0.2-2.1-0.5-3-0.8c-0.5-0.2-1-0.3-1.5-0.6c-0.5-0.2-0.9-0.5-1.4-0.7c-1.8-1-3.4-2.5-4.7-4.2
						c-1.3-1.7-2.3-3.5-3-5.5c-1.5-3.9-2.1-8.1-2.2-12.3l0.1,0.1c-2.1-0.6-3.7-2.2-4.8-3.9c-1.1-1.8-1.8-3.8-2.3-5.8
						c-1-4.1-0.7-8.4,0.6-12.3c1.3-4,3.6-7.6,6.2-10.8c2.7-3.2,5.7-6.1,9.1-8.6l-0.1,0.3c-0.6-2.9-0.9-5.8-1.1-8.7s-0.2-5.9,0-8.8
						c0.1-1.5,0.3-2.9,0.5-4.4c0.3-1.4,0.5-2.9,1.2-4.3c1.2-2.8,3.7-4.9,6.3-6.2c2.7-1.4,5.5-2.1,8.3-3c1.3-0.5,2.8-1,3.6-1.9
						c0.8-1,1.3-2.4,1.8-3.7c1-2.7,1.9-5.5,3.4-8.1s3.4-5,6-6.6c0.7-0.4,1.3-0.8,2-1.1s1.4-0.6,2.1-0.8l2.2-0.6
						c0.7-0.1,1.5-0.3,2.2-0.4c3-0.3,6-0.1,8.9,0.6c2.9,0.7,5.7,2,8.3,3.3c2.5,1.2,5.4,3.1,6.9,1.1c0.7-0.8,1-2.2,1.4-3.6
						c0.4-1.4,1-2.9,1.9-4.2s2-2.4,3.3-3.3c1.3-0.9,2.7-1.6,4.2-2.1c2.9-1,5.9-1.3,8.9-1.4c3-0.1,5.9,0.1,8.9,0.4l-1.2,0.6
						c1.5-2.6,3.5-4.8,5.9-6.5s5.4-2.7,8.2-3c2.8-0.4,5.6-0.4,8.4-0.3c2.8,0.1,5.6,0.3,8.4,0.7l-1.1,0.4c0.2-0.2,0.3-0.3,0.4-0.4
						c0.1-0.1,0.2-0.2,0.3-0.3c0.2-0.2,0.4-0.3,0.7-0.4c0.4-0.3,0.9-0.5,1.4-0.7c0.9-0.4,1.8-0.7,2.8-0.9c1.9-0.5,3.7-0.8,5.6-0.9
						c1.9-0.2,3.7-0.2,5.6-0.3c1,0.1,1.9,0.1,2.9,0.2c0.9,0.1,1.9,0.2,2.8,0.4c3.7,0.8,7.3,2.1,10.6,3.8c3.4,1.7,6.5,3.6,9.5,5.9
						l-1-0.3c4.9-0.4,9.6-0.1,14.4,0.7c2.4,0.4,4.7,0.9,7.1,1.5c2.4,0.7,4.8,1.8,6.7,3.6c2,1.7,3.5,3.9,4.4,6.3
						c1,2.4,1.4,4.9,1.5,7.3c0.1,2.5,0,4.9-0.4,7.3c-0.4,2.4-0.9,4.7-1.6,7.1l-1-1.9c3.6,1.1,7.1,2.3,10.6,3.6s6.9,2.7,10.3,4.4
						c0.9,0.4,1.7,0.9,2.5,1.3c0.9,0.6,1.8,1.1,2.5,1.8c1.5,1.4,2.7,3.3,3.2,5.3c0.6,2,0.7,4,0.5,6s-0.5,3.8-1.2,5.8l-0.8-1.7
						c0.4,0.2,0.6,0.3,0.8,0.5c0.3,0.1,0.5,0.3,0.7,0.5c0.5,0.3,0.9,0.6,1.3,1c0.8,0.7,1.6,1.5,2.3,2.2c0.7,0.8,1.4,1.6,2,2.4
						c0.3,0.4,0.6,0.8,0.9,1.3s0.6,1,0.9,1.5c0.5,1.1,0.7,2.3,0.7,3.6c-0.1,1.2-0.4,2.4-0.9,3.4s-1.1,1.9-1.8,2.8
						c-0.3,0.4-0.7,0.8-1,1.2l-0.4,0.5c-0.1,0.1-0.1,0.1-0.1,0.2l0,0c0,0,0,0,0-0.1s0-0.2,0-0.2l-0.4-0.9c0.9,0.9,1.5,1.8,2.1,2.8
						s1.2,2,1.7,3c1,2.1,1.8,4.3,2.2,6.5c0.5,2.3,0.6,4.6,0.5,6.9c-0.1,1.2-0.3,2.4-0.7,3.6c-0.5,1.2-1.2,2.2-2.1,3.1
						c-1.8,1.8-4,2.7-6.1,3.5s-4.3,1.3-6.4,1.9c-4.1,1.2-8.4,2.5-10.6,6c-2.4,3.4-3.1,7.8-4.4,12c-0.6,2.1-1.4,4.3-2.5,6.3
						c-1,2-2.5,3.9-4.3,5.4c-1.7,1.5-3.7,2.6-5.7,3.6s-4.2,1.7-6.4,2.2c-4.4,1.1-8.8,1.4-13.3,1.2l0.7-0.8c0.1,1-0.1,1.7-0.3,2.5
						s-0.5,1.5-0.9,2.3c-0.7,1.4-1.7,2.7-2.7,3.9c-2.1,2.3-4.7,4.1-7.4,5.6c-1.3,0.8-2.8,1.4-4.1,2c-1.4,0.6-2.8,1.2-4.3,1.7
						c-2.9,1-6,1.5-9.1,1.6c-6.2,0.1-12.3-1.4-18-3.6c-5.7-2.3-11.1-5.3-16-8.9h0.3c-1.3,0.5-2.5,0.6-3.8,0.8
						c-1.3,0.2-2.5,0.3-3.8,0.4c-2.5,0.2-5,0.3-7.6,0c-2.5-0.3-5-0.8-7.4-1.4s-4.8-1.4-7.2-2.4l0.2-0.2c0.1,0.5-0.3,0.8-0.5,1
						c-0.3,0.2-0.5,0.4-0.8,0.6c-0.6,0.3-1.2,0.6-1.8,0.8c-1.3,0.5-2.6,0.8-3.8,1.1c-2.6,0.6-5.2,1-7.9,1.4l-4,0.5l-4,0.4
						c-2.6,0.3-5.3,0.3-8-0.1c-2.6-0.4-5.2-1.1-7.6-2.4c-2.4-1.2-4.5-2.9-6.3-4.9s-3.2-4.3-4.4-6.6c-0.6-1.2-1.2-2.4-1.7-3.6
						c-0.3-0.6-0.6-1.2-0.9-1.8C109.7,351.5,109.4,350.9,108.9,350.5z"/>
				</g>
				<g id="lines_1_">
					<path class="st4" d="M92.5,269.5c0,0-12.8,13.2-2.3,23.7c12,11.8,19.8,7.8,19.8,7.8"/>
					<path class="st4" d="M126.3,271c0,0-17.3,1.7-16.4,17c0.4,13.6,8.4,10.3,2.9,25.3c-3.8,11.5-11.2,12.3-11.2,12.3"/>
					<path class="st4" d="M124.5,312.1c0,0,8.4-0.9,8.5,8.5s-2.2,12-2.2,12s11.5-6.2,21.4-1s7.2,12.3,7.2,12.3s2.7-9.3,14.7-13.3
						c12.1-4,25.3-0.7,25.3-0.7"/>
					<path class="st4" d="M121.5,288.3c0,0,14.4-6.9,21.7,4.7c7.4,11.6,12.8,36.7,31.3,25.3c32.2-20-17.6-54.2-17.6-54.2"/>
					<path class="st4" d="M134,286.6c0,0-12.2-20.7,6.4-31.8c30.2-17.5,43.7,12.3,43.7,12.3"/>
					<path class="st4" d="M176.6,257.1c0,0,1.1-18.4,23.8-15.2c27.1,3,18.3,20.2,18.3,20.2"/>
					<path class="st4" d="M220.1,254.4c0,0,5.1-15.7,20.8-7.7s18.5,21.8,18.2,33.8s7,21,7,21"/>
					<path class="st4" d="M191.6,262.1c0,0,6.3,9.6,4.7,29.8c-1.6,20.2,8.7,20.3,12.9,20.6"/>
					<path class="st4" d="M231.7,275.2c0,0,11.2,13.5,10.8,22.3c-1.3,10.9-6,15-6,15"/>
					<path class="st4" d="M221.3,353.8c0,0-2.2-5-7.4-12.6c-2.8-4-8.9-8.5-10.6-14.1c-7.1-23.2,42.7-23.8,43.3,0.9
						c0.1,10.7,5,15.1,5,15.1"/>
					<path class="st4" d="M260.4,328c0,0,12.2,2.3,20-3s6.9-11.8,6.9-11.8"/>
					<path class="st4" d="M258.9,275.2c0,0,13.2-0.6,19.1,6.5c4.3,5.2,4,7,4,7"/>
					<path class="st4" d="M278.5,297.5c0,0,2.7-15.3,13.8-14.5c6.9,0.6,15.6,12.1,15.6,12.1"/>
					<path class="st4" d="M271.2,257.7c0,0-13.4-1.3-7.9-8.4c3.3-3.8,7.9,0.5,7.9,0.5"/>
					<path class="st4" d="M83.3,316.6c0,0-9.3,2.8-8.7,10.5"/>
					<path class="st4" d="M116.3,342c0,0-0.8,3.1-6.4,6.3c-4.5,2.5-11.1,2.6-11.1,2.6"/>
					<path class="st4" d="M150.9,350.7c-0.2,0.2,2.8,14.5,15.1,16.5"/>
					<path class="st4" d="M180.6,348.8c-0.6,0.2,3.6,16.1,15.6,22.8"/>
					<path class="st4" d="M228.4,335.5c0,0,6.8,4,17.4,13c9.9,8.6,6.5,16.7,6.5,16.7"/>
					<path class="st4" d="M105.4,255.6c0,0,4.3,2.9,8.6,0.1c4.3-2.8,3.9-7,3.9-7"/>
					<path class="st4" d="M126.3,245.9c0,0-0.1,4.3,4.3,5.4c4.4,1,5.8-1.5,5.8-1.5"/>
					<path class="st4" d="M181,225.4c-3.7-6.7-8.1-6.7-10.1-7"/>
					<path class="st4" d="M204.9,212.8c0,0,6.5,5.8-0.5,7.6s-8.4-2-8.4-2"/>
					<path class="st4" d="M236.6,212c0,0,14.9,9.1,17.4,15.3"/>
				</g>
			</g>
		</g>
	</g>
</g>
</svg>
