<?xml version="1.0" encoding="utf-8"?>
<!-- Generator: Adobe Illustrator 22.0.0, SVG Export Plug-In . SVG Version: 6.00 Build 0)  -->
<svg version="1.1" id="图层_1" xmlns="http://www.w3.org/2000/svg" xmlns:xlink="http://www.w3.org/1999/xlink" x="0px" y="0px"
	 viewBox="0 0 335 580" style="enable-background:new 0 0 335 580;" xml:space="preserve">
<style type="text/css">
	.st0{fill:#05770D;}
	.st1{fill:#42A30A;}
	.st2{fill:#FFFFFF;}
	.st3{fill:#EDE1DA;}
	.st4{fill:#044702;}
	.st5{fill:#B706A2;}
	.st6{fill:#067A03;}
	.st7{fill:#17F700;}
	.st8{fill:#FFEFE2;}
	.st9{fill:#2B1710;}
	.st10{fill:#E1D2C7;}
	.st11{fill:none;stroke:#F7F700;stroke-width:5;stroke-miterlimit:10;}
</style>
<g id="house_2_">
	<path class="st0" d="M297.8,557l-78-222c-2.9-8.3,1.4-17.5,9.8-20.4l0,0c8.3-2.9,17.5,1.5,20.4,9.8l78,222
		c2.9,8.3-1.5,17.5-9.8,20.4l0,0C309.8,569.7,300.7,565.3,297.8,557z"/>
	<path class="st1" d="M317.8,566.9c-1.6,0.5-3.3,0.8-4.9,0.8c-6.6,0-12.8-4.1-15.1-10.7l-69.9-198.8c6.2-0.9,16.3,2.9,26.4,29
		C266.9,419.9,306.8,535.2,317.8,566.9z"/>
	<path class="st2" d="M36.5,25.7c-2.1,1-11.9,50.1,2.6,78.8c10.7,18.1,12.7,16.9,13.2,19s-21.5,24.6-22.4,38.9
		c-0.8,28.7,10.8,80.4,2.4,103.3c-8.7,24.5-28,38.1-26.1,53.6s16.2,24.4,17,31c1.7,17.6,45.5,18.1,62.9-0.9
		c5-5.5,39.1-72.9,45.9-70.4c14.5,5.9,15.9,61.4,15.9,61.4s37,22.5,85.9,0.6c41-18.6,51.6-62.2,51.6-62.2L228.9,134l14.7,0.8
		c0,0-9.3-19.6-23.8-33.4s-28.7-21-28.7-21s0.4-8.7,0-23S182.6,34,182.6,34s-7.1,8.3-11.9,13s-12.8,10.4-12.8,10.4
		s-56.2,4.8-58.1,5.9c-1.9,1.1-23.2-4-36.4-14.3S38.5,24.7,36.5,25.7z"/>
	<path class="st3" d="M88.8,332.9c-2.2,7.3-13.6,22.3-16.4,25.9c-20.1,8.7-47.8,5.4-49.1-8.5c-0.8-6.6-15.1-15.5-17-31
		c-1.1-9.2,5.2-17.7,12.4-28.3c8.4-3.8,31.1-12.2,53-1.5C99,302.9,91.2,324.6,88.8,332.9z"/>
	<path class="st4" d="M27.6,309.7c-3.4,0-13.2,9.7-8.8,21c6,15,17.8,17.4,17.4,12.3s-6.4-12.8-5.7-19.5
		C31.3,316.6,32.4,309.7,27.6,309.7z"/>
	<path class="st4" d="M64.3,313.4c-4.7,3.9-9.2,12-8.1,28.8c0.6,11.3,17.8-15.3,18.8-20C75.9,317.5,69,309.5,64.3,313.4z"/>
	<path class="st3" d="M44.4,275.4c7.7,7.5,15.1-2.1,18.6-8.1s26.4-61.7,26.7-70.9c0-9.9-24.2-18.6-36.4-6.1
		C45.8,198,37.5,267.5,44.4,275.4z"/>
	<path class="st5" d="M157.3,199.6c-16.2,39.8-44,73.8-44,73.8s1.9,4.6,3,12.5c0.6,4.3,0.6,8.2,0.4,10.8c-2.3,3.6-4.7,7.5-7.1,11.6
		c0.3-11.2-0.7-36.5-14.5-46.3c-16.7-11-47.1-6.8-61-4.1c0.4-2.5,0.7-5.3,0.9-8.1c9.2-1.7,28.4-4.5,43.4-1.8
		c24.6,3.7,30.8,18.1,30.8,18.1s17.6-24,31.9-51.1c11.8-22.4,21.5-54.3,20.3-57.9c-1.2-3.6,1-10.9-47.5-21.9
		c-24.9-5.1-59.8-0.8-70.7,0.7c2.5-3.3,4.8-6.2,6.4-8.4c10.2-2.5,34-6.8,62.8-2.3c43.2,7.2,48.8,18.7,51.5,18s2.1-3.1,3-8.4
		s1.5-11.5,1.5-11.5s3.6-1.3,6.4-3c2.8-1.7,4.7-4.2,4.7-4.2S167.7,178.5,157.3,199.6z"/>
	<path class="st6" d="M178.8,84c-5.1,14.3-13.3,33.5-13.3,33.5s-4.7,1.3-12-1.9c-1.9-0.8-3.4-1.6-4.5-2.3c-0.1-5,0.3-13.2,3-20.5
		c4.3-11.3,11.5-14.1,18.2-22.8c5.5-7.2,9.2-14.3,11-18C181.8,61,182.1,74.9,178.8,84z"/>
	<path class="st6" d="M42.9,43.3c0,0-7.4,34.9,4.5,55c6.7,10.8,11.9,16.4,11.9,16.4l16.2-17.2c0,0-2.1-9.5-9.3-19.3
		C58.1,66.9,42.9,43.3,42.9,43.3z"/>
	<path class="st7" d="M157.9,57.3c0,0-22.2,11.4-24.5,28.5c-1.3,9.7,2.8,15.2,1.3,17.9c-1.2,1.8-6.6,2.2-10.7-0.4
		c-5.9-3.7-3.6-8-4.4-8.5c-0.4-0.2-14.7,11-16.3,26.3c-2.1,17,10.3,18.6,13.3,13.9s-2.4-12.8-2.4-12.8s13.3,15.9,1.7,19.7
		c-5,1.3-16.9,0.2-20.7-17.2c-4.2-20.4,9.5-31.3,9-31.4c-1-0.3-6.2,8.9-9.1,9.1s-7-3.4-11.4-12.6c-5.9-12.5-2.9-30.5,2.1-33.7
		c6.8-3.3,11.6,5.3,13.7,4.2s-5-29.3,9.3-31.4s10.1,8.4,12.7,8.3c2.5-0.1,8.1-21.5,20.6-13s0.3,22.9,1.6,23.2s2.5-8.5,10.2-6.7
		C161.5,42.2,157.9,57.3,157.9,57.3z"/>
	<path class="st7" d="M292.9,289.8c-4.5,5.2-15.5-25.1-19.9-24.4c-7.6,1.2-6.8-9.1-8.6-11.5c-10.9-15.4-11.4,5.2-17.3,1.7
		c-3.7-2.2-1.9-38.1-8.1-36.4c-6.2,1.7-3.2-14.3-5.6-14.9c-6.9-1.7-5.2,11.1-12,6.6c-3.4-2.2,1.4-31.6-4.3-29.8
		c-5.7,1.7-2.4-15.6-6.4-16c-4.4,0-3.5-10.4-6.1-15.6c-5.1-9.3-2.9,3-11.1-0.9s-14-32.3-14-32.3s3.9-6.2,8.1-16.6
		c3.3-8.1,3.6-16.2,3.6-19.2c0.6,0.3,13.3-5.1,24.1,1.2c4.6,2.7,8.1,11.6,10.9,17.6c4,11.7,10.7,9.3,16.1,14.3s4.8,16.7,2.4,21.9
		c-2.4,5.2-8-0.4-2.1,5.1s3.5,7.4,6.3,10.5c1.3,1.4,7.1,1.5,11.7,6.5c4.6,5,5.9,13.4,4.7,16.7c-1.3,3.8-5.3,0.8-5.6,1.3
		c-0.2,0.5,15.6,1.7,17.4,10.3s1.1,8,5.1,10.8s10,15.1,6.7,21.9c-1.9,4.3-8.3-0.2-9.3,2.4c-0.5,2,3.9,0.5,3.8,5.8
		c0.1,3.5,6.2,2.1,7.2,8.4c1,6.3-5.7,8-3.1,9.9c8.7,6.4,7.6,9.9,5.7,14.1c-3.2,4.8,3,11.8-0.2,13.7S296,286.1,292.9,289.8z"/>
	<path class="st3" d="M256.1,326.1c-6.2,5.6-13.6,10.8-22.4,14.8c-48.8,21.9-85.9-0.6-85.9-0.6s-1.3-55.4-15.8-61.4
		c0.7,0.3,13.9,4.7,37-7c23.8-12,36.1-25.7,57-7.5C236.8,275.6,251.4,313.2,256.1,326.1z"/>
	<g id="eye_3_">
		<path class="st8" d="M113.9,175c0,0-3.2,16.3,11.9,21.1s24.4-7,24.4-7s-5.1-7.9-16.3-12S113.9,175,113.9,175z"/>
		<path class="st7" d="M105.9,176.1c0,0,11.6-3.6,26.7,1.7s18.3,12.9,18.3,12.9s4.5-9.5-12.6-15.9S105.9,176.1,105.9,176.1z"/>
		<circle class="st9" cx="126.5" cy="185.9" r="5.4"/>
		<circle class="st10" cx="125.8" cy="183.5" r="2.8"/>
	</g>
	<g id="eye_2_">
		<path class="st8" d="M47.3,169.4c0,0,2.8,12.3-8.5,16.3S20.1,181,20.1,181s3.7-6.1,12-9.5C40.5,168.2,47.3,169.4,47.3,169.4z"/>
		<path class="st7" d="M53.4,170.1c0,0-8.9-2.5-20.2,1.9s-13.6,10.2-13.6,10.2s-3.7-7.1,9.1-12.4S53.4,170.1,53.4,170.1z"/>
		<circle class="st9" cx="38.1" cy="177.9" r="4.1"/>
		<circle class="st10" cx="38.5" cy="176.1" r="2.1"/>
	</g>
	<ellipse id="cycle_1_" class="st11" cx="119.4" cy="31.2" rx="99.5" ry="18.9"/>
</g>
</svg>
